<svg width="180" height="41" viewBox="0 0 180 41" fill="none" xmlns="http://www.w3.org/2000/svg">
<mask id="mask0_952_445" style="mask-type:luminance" maskUnits="userSpaceOnUse" x="125" y="0" width="55" height="41">
<path d="M155.841 0H174.342C176.377 0 178.252 1.0828 179.256 2.83137C180.264 4.57994 180.246 6.73091 179.212 8.46119L164.824 32.5388C161.689 37.7809 155.996 41 149.841 41H131.34C129.31 41 127.43 39.9172 126.426 38.1686C125.418 36.4201 125.437 34.2691 126.474 32.5388L140.859 8.46119C143.993 3.21913 149.69 0 155.841 0Z" fill="white"/>
</mask>
<g mask="url(#mask0_952_445)">
<path d="M121.416 0H184.292V41H121.416V0Z" fill="black"/>
</g>
<path d="M9.77668 10.3599C13.0331 10.3599 15.481 11.3512 17.1166 13.3302C18.7485 15.3129 19.4648 18.0272 19.258 21.4805H6.05504C6.3578 22.5852 6.88946 23.4376 7.65003 24.0412C8.41799 24.6374 9.36317 24.9337 10.4856 24.9337C12.1987 24.9337 13.694 24.3009 14.9752 23.0315L18.1504 26.1043C16.1197 28.2919 13.3876 29.382 9.9539 29.382C6.91161 29.382 4.48959 28.5187 2.68785 26.7921C0.893489 25.0654 0 22.7791 0 19.9295C0 17.0542 0.893489 14.7423 2.68785 12.9937C4.48959 11.2378 6.85254 10.3599 9.77668 10.3599ZM5.95167 18.276H13.4836C13.4836 17.1456 13.1476 16.2348 12.4793 15.5397C11.8184 14.8484 10.9434 14.5008 9.85052 14.5008C8.82412 14.5008 7.96386 14.8447 7.26605 15.5251C6.57563 16.2092 6.13627 17.1274 5.95167 18.276Z" fill="black"/>
<path d="M27.2734 10.3015C30.0388 10.3015 32.6196 11.0039 35.0121 12.4086L32.9593 16.2715C30.6333 15.0241 28.6617 14.3986 27.0371 14.3986C25.804 14.3986 25.1911 14.8302 25.1911 15.6862C25.1911 16.1472 25.5234 16.5313 26.1953 16.8422C26.8636 17.1568 27.687 17.4385 28.6617 17.6909C29.6364 17.936 30.6037 18.2469 31.571 18.6274C32.5347 19.0078 33.3506 19.615 34.0226 20.4418C34.7019 21.2722 35.0416 22.2855 35.0416 23.4853C35.0416 25.3509 34.3069 26.8069 32.8411 27.8604C31.3827 28.9066 29.4813 29.4261 27.1405 29.4261C23.8102 29.4261 21.0006 28.5481 18.7078 26.7922L20.6129 23.0024C22.8281 24.5462 25.0471 25.3144 27.2734 25.3144C28.6395 25.3144 29.3262 24.89 29.3262 24.0413C29.3262 23.5548 28.994 23.1488 28.3368 22.8269C27.6759 22.5049 26.8673 22.2196 25.9147 21.9635C24.9585 21.7111 24.0022 21.3929 23.0497 21.0124C22.1045 20.632 21.2959 20.043 20.6277 19.2419C19.9668 18.4335 19.6382 17.4202 19.6382 16.1984C19.6382 14.3364 20.3471 12.8878 21.7648 11.8525C23.1826 10.821 25.0176 10.3015 27.2734 10.3015Z" fill="black"/>
<path d="M48.2411 10.3599C50.8884 10.3599 53.0187 11.2451 54.6359 13.0083C56.2493 14.7642 57.0579 17.0835 57.0579 19.9587C57.0579 22.7901 56.2641 25.0654 54.6802 26.7921C53.1036 28.5187 51.0065 29.382 48.3888 29.382C45.9262 29.382 44.01 28.4858 42.6439 26.6896V35.8788H36.6184V10.5793H42.6439V13.023C44.0321 11.2488 45.8967 10.3599 48.2411 10.3599ZM46.7791 24.6557C48.0381 24.6557 49.0571 24.2021 49.8361 23.2949C50.6115 22.3877 51.0028 21.2244 51.0028 19.7978C51.0028 18.3638 50.6115 17.2005 49.8361 16.3006C49.0571 15.4044 48.0381 14.9544 46.7791 14.9544C45.5754 14.9544 44.586 15.4044 43.8106 16.3006C43.0316 17.2005 42.6439 18.3601 42.6439 19.7831C42.6439 21.2391 43.0205 22.4133 43.7811 23.3095C44.549 24.2094 45.5459 24.6557 46.7791 24.6557Z" fill="black"/>
<path d="M67.0347 10.3599C70.0954 10.3599 72.5654 11.2341 74.4484 12.9791C76.3277 14.7167 77.2692 17.014 77.2692 19.8709C77.2692 22.7206 76.3277 25.0179 74.4484 26.7628C72.5654 28.5114 70.0954 29.382 67.0347 29.382C63.9407 29.382 61.4559 28.5114 59.5766 26.7628C57.6937 25.0179 56.7559 22.7206 56.7559 19.8709C56.7559 17.014 57.6937 14.7167 59.5766 12.9791C61.4559 11.2341 63.9407 10.3599 67.0347 10.3599ZM67.0347 15.1008C65.772 15.1008 64.7529 15.5507 63.9776 16.4469C63.1986 17.3468 62.8109 18.5065 62.8109 19.9295C62.8109 21.3744 63.1986 22.5413 63.9776 23.4266C64.7529 24.3155 65.772 24.7582 67.0347 24.7582C68.2641 24.7582 69.2684 24.3155 70.0474 23.4266C70.8228 22.5413 71.2141 21.3744 71.2141 19.9295C71.2141 18.5065 70.8228 17.3468 70.0474 16.4469C69.2684 15.5507 68.2641 15.1008 67.0347 15.1008Z" fill="black"/>
<path d="M84.5543 10.5795V13.7109C85.8724 11.4794 87.9067 10.3418 90.6537 10.3015V15.6862C88.9295 15.5216 87.5228 15.8033 86.4299 16.5349C85.337 17.2592 84.7094 18.2871 84.5543 19.6224V29.1773H78.5288V10.5795H84.5543Z" fill="black"/>
<path d="M102.349 24.0413L103.545 28.1823C102.075 29.031 100.403 29.4553 98.5235 29.4553C96.6627 29.4553 95.1563 28.9432 94.0044 27.9189C92.8598 26.8946 92.2913 25.4387 92.2913 23.5438V15.335H89.6772V11.4282H92.2913V6.26294H98.2725V11.3989H103.19V15.335H98.2725V22.622C98.2725 23.3353 98.4128 23.8584 98.7007 24.1876C98.9961 24.5205 99.4318 24.6778 100.015 24.6559C100.576 24.6559 101.352 24.451 102.349 24.0413Z" fill="black"/>
<path d="M112.801 10.3599C116.058 10.3599 118.505 11.3512 120.141 13.3302C121.773 15.3129 122.489 18.0272 122.282 21.4805H109.079C109.382 22.5852 109.914 23.4376 110.674 24.0412C111.442 24.6374 112.388 24.9337 113.51 24.9337C115.223 24.9337 116.718 24.3009 118 23.0315L121.175 26.1043C119.144 28.2919 116.412 29.382 112.978 29.382C109.936 29.382 107.514 28.5187 105.712 26.7921C103.918 25.0654 103.024 22.7791 103.024 19.9295C103.024 17.0542 103.918 14.7423 105.712 12.9937C107.514 11.2378 109.877 10.3599 112.801 10.3599ZM108.976 18.276H116.508C116.508 17.1456 116.172 16.2348 115.504 15.5397C114.843 14.8484 113.968 14.5008 112.875 14.5008C111.849 14.5008 110.988 14.8447 110.29 15.5251C109.6 16.2092 109.161 17.1274 108.976 18.276Z" fill="black"/>
<path d="M130.298 10.3015C133.063 10.3015 135.644 11.0039 138.036 12.4086L135.983 16.2715C133.657 15.0241 131.686 14.3986 130.061 14.3986C128.828 14.3986 128.215 14.8302 128.215 15.6862C128.215 16.1472 128.548 16.5313 129.22 16.8422C129.888 17.1568 130.711 17.4385 131.686 17.6909C132.661 17.936 133.628 18.2469 134.595 18.6274C135.559 19.0078 136.375 19.615 137.047 20.4418C137.726 21.2722 138.066 22.2855 138.066 23.4853C138.066 25.3509 137.331 26.8069 135.865 27.8604C134.407 28.9066 132.505 29.4261 130.165 29.4261C126.834 29.4261 124.025 28.5481 121.732 26.7922L123.637 23.0024C125.852 24.5462 128.071 25.3144 130.298 25.3144C131.664 25.3144 132.35 24.89 132.35 24.0413C132.35 23.5548 132.018 23.1488 131.361 22.8269C130.7 22.5049 129.891 22.2196 128.939 21.9635C127.983 21.7111 127.026 21.3929 126.074 21.0124C125.129 20.632 124.32 20.043 123.652 19.2419C122.991 18.4335 122.662 17.4202 122.662 16.1984C122.662 14.3364 123.371 12.8878 124.789 11.8525C126.207 10.821 128.042 10.3015 130.298 10.3015Z" fill="black"/>
<path d="M157.185 21.8904H151.336V27.6995H147.541V21.8904H141.722V18.1299H147.541V12.3354H151.336V18.1299H157.185V21.8904Z" fill="white"/>
</svg>
