<svg width="624" height="144" viewBox="0 0 624 144" fill="none" xmlns="http://www.w3.org/2000/svg">
<mask id="mask0_96_835" style="mask-type:luminance" maskUnits="userSpaceOnUse" x="435" y="0" width="189" height="144">
<path d="M539.492 0H603.54C610.582 0 617.075 3.78328 620.552 9.89277C624.041 16.0023 623.977 23.5177 620.398 29.5633L570.59 113.69C559.738 132.006 540.029 143.253 518.723 143.253H454.675C447.646 143.253 441.14 139.47 437.663 133.361C434.174 127.251 434.238 119.736 437.83 113.69L487.626 29.5633C498.477 11.2476 518.199 0 539.492 0Z" fill="white"/>
</mask>
<g mask="url(#mask0_96_835)">
<path d="M420.319 0H637.986V143.253H420.319V0Z" fill="black"/>
</g>
<path d="M33.845 36.1975C45.1182 36.1975 53.5923 39.6613 59.2544 46.576C64.9038 53.5035 67.3833 62.9872 66.6676 75.0528H20.9614C22.0095 78.9128 23.85 81.8909 26.483 83.9998C29.1415 86.0832 32.4135 87.1185 36.2991 87.1185C42.2296 87.1185 47.4061 84.9073 51.8412 80.4721L62.8332 91.2085C55.8034 98.8517 46.3452 102.661 34.4586 102.661C23.9267 102.661 15.5421 99.6442 9.30483 93.6114C3.09309 87.5786 0 79.5902 0 69.6336C0 59.5874 3.09309 51.5096 9.30483 45.4001C15.5421 39.265 23.7222 36.1975 33.845 36.1975ZM20.6036 63.8564H46.6775C46.6775 59.9069 45.5144 56.7244 43.201 54.2959C40.9131 51.8802 37.884 50.666 34.1007 50.666C30.5475 50.666 27.5694 51.8675 25.1537 54.2448C22.7636 56.6349 21.2426 59.843 20.6036 63.8564Z" fill="black"/>
<path d="M94.4153 35.9934C103.989 35.9934 112.923 38.4474 121.205 43.3555L114.099 56.8526C106.046 52.4941 99.2211 50.3085 93.5973 50.3085C89.3284 50.3085 87.2066 51.8167 87.2066 54.8076C87.2066 56.418 88.357 57.7601 90.6832 58.8465C92.9966 59.9457 95.8468 60.9298 99.2211 61.8118C102.595 62.6681 105.944 63.7545 109.293 65.0838C112.629 66.413 115.453 68.5348 117.78 71.4233C120.131 74.3247 121.307 77.8652 121.307 82.0574C121.307 88.5759 118.764 93.6629 113.69 97.3439C108.641 100.999 102.059 102.814 93.9552 102.814C82.4264 102.814 72.6998 99.7468 64.7626 93.6118L71.3578 80.3703C79.0266 85.764 86.7082 88.4481 94.4153 88.4481C99.1444 88.4481 101.522 86.9655 101.522 84.0002C101.522 82.3003 100.371 80.8815 98.0964 79.7568C95.8085 78.632 93.0094 77.6351 89.7118 76.7404C86.4014 75.8585 83.091 74.7465 79.7935 73.4172C76.5214 72.088 73.7223 70.0302 71.4089 67.2311C69.121 64.4064 67.9835 60.8659 67.9835 56.597C67.9835 50.0913 70.4375 45.0298 75.3455 41.4127C80.2536 37.8084 86.6059 35.9934 94.4153 35.9934Z" fill="black"/>
<path d="M167.002 36.1975C176.166 36.1975 183.541 39.2906 189.139 45.4512C194.724 51.5863 197.524 59.6897 197.524 69.7358C197.524 79.6286 194.776 87.5786 189.292 93.6114C183.835 99.6442 176.575 102.661 167.513 102.661C158.988 102.661 152.354 99.5292 147.625 93.2535V125.36H126.766V36.9644H147.625V45.5023C152.431 39.3034 158.886 36.1975 167.002 36.1975ZM161.94 86.1471C166.299 86.1471 169.826 84.5622 172.523 81.3924C175.207 78.2226 176.562 74.1582 176.562 69.1734C176.562 64.1631 175.207 60.0987 172.523 56.9544C169.826 53.823 166.299 52.2509 161.94 52.2509C157.774 52.2509 154.348 53.823 151.664 56.9544C148.967 60.0987 147.625 64.1504 147.625 69.1223C147.625 74.2093 148.929 78.3121 151.562 81.4435C154.22 84.5877 157.671 86.1471 161.94 86.1471Z" fill="black"/>
<path d="M232.061 36.1975C242.657 36.1975 251.208 39.2523 257.726 45.349C264.232 51.4201 267.491 59.4468 267.491 69.4291C267.491 79.3857 264.232 87.4124 257.726 93.5091C251.208 99.6186 242.657 102.661 232.061 102.661C221.35 102.661 212.749 99.6186 206.243 93.5091C199.724 87.4124 196.478 79.3857 196.478 69.4291C196.478 59.4468 199.724 51.4201 206.243 45.349C212.749 39.2523 221.35 36.1975 232.061 36.1975ZM232.061 52.7622C227.69 52.7622 224.162 54.3343 221.478 57.4657C218.781 60.6099 217.439 64.6616 217.439 69.6336C217.439 74.6822 218.781 78.7594 221.478 81.8525C224.162 84.9584 227.69 86.505 232.061 86.505C236.317 86.505 239.794 84.9584 242.491 81.8525C245.175 78.7594 246.53 74.6822 246.53 69.6336C246.53 64.6616 245.175 60.6099 242.491 57.4657C239.794 54.3343 236.317 52.7622 232.061 52.7622Z" fill="black"/>
<path d="M292.712 36.9648V47.9056C297.275 40.109 304.317 36.134 313.826 35.9934V54.8076C307.858 54.2324 302.988 55.2166 299.205 57.7728C295.421 60.3036 293.248 63.8951 292.712 68.5603V101.945H271.852V36.9648H292.712Z" fill="black"/>
<path d="M354.312 84.0005L358.453 98.469C353.366 101.434 347.576 102.917 341.07 102.917C334.629 102.917 329.414 101.128 325.426 97.5487C321.464 93.9699 319.495 88.883 319.495 82.2622V53.5808H310.446V39.9303H319.495V21.8831H340.201V39.8281H357.226V53.5808H340.201V79.0413C340.201 81.5337 340.687 83.3614 341.684 84.5117C342.706 85.6748 344.215 86.2244 346.234 86.1477C348.177 86.1477 350.861 85.432 354.312 84.0005Z" fill="black"/>
<path d="M390.496 36.1975C401.769 36.1975 410.243 39.6613 415.905 46.576C421.555 53.5035 424.034 62.9872 423.319 75.0528H377.612C378.661 78.9128 380.501 81.8909 383.134 83.9998C385.793 86.0832 389.065 87.1185 392.95 87.1185C398.881 87.1185 404.057 84.9073 408.492 80.4721L419.484 91.2085C412.454 98.8517 402.996 102.661 391.11 102.661C380.578 102.661 372.193 99.6442 365.956 93.6114C359.744 87.5786 356.651 79.5902 356.651 69.6336C356.651 59.5874 359.744 51.5096 365.956 45.4001C372.193 39.265 380.373 36.1975 390.496 36.1975ZM377.255 63.8564H403.329C403.329 59.9069 402.165 56.7244 399.852 54.2959C397.564 51.8802 394.535 50.666 390.752 50.666C387.198 50.666 384.22 51.8675 381.805 54.2448C379.415 56.6349 377.894 59.843 377.255 63.8564Z" fill="black"/>
<path d="M451.066 35.9934C460.639 35.9934 469.573 38.4474 477.856 43.3555L470.749 56.8526C462.697 52.4941 455.872 50.3085 450.248 50.3085C445.979 50.3085 443.857 51.8167 443.857 54.8076C443.857 56.418 445.008 57.7601 447.334 58.8465C449.647 59.9457 452.498 60.9298 455.872 61.8118C459.246 62.6681 462.595 63.7545 465.944 65.0838C469.279 66.413 472.104 68.5348 474.43 71.4233C476.782 74.3247 477.958 77.8652 477.958 82.0574C477.958 88.5759 475.415 93.6629 470.34 97.3439C465.292 100.999 458.709 102.814 450.606 102.814C439.077 102.814 429.35 99.7468 421.413 93.6118L428.008 80.3703C435.677 85.764 443.359 88.4481 451.066 88.4481C455.795 88.4481 458.172 86.9655 458.172 84.0002C458.172 82.3003 457.022 80.8815 454.747 79.7568C452.459 78.632 449.66 77.6351 446.362 76.7404C443.052 75.8585 439.742 74.7465 436.444 73.4172C433.172 72.088 430.373 70.0302 428.06 67.2311C425.772 64.4064 424.634 60.8659 424.634 56.597C424.634 50.0913 427.088 45.0298 431.996 41.4127C436.904 37.8084 443.257 35.9934 451.066 35.9934Z" fill="black"/>
<path d="M544.144 76.4848H523.898V96.7816H510.759V76.4848H490.616V63.3455H510.759V43.0999H523.898V63.3455H544.144V76.4848Z" fill="white"/>
</svg>
