<svg width="100" height="100" viewBox="0 0 100 100" fill="none" xmlns="http://www.w3.org/2000/svg">
<path d="M74.925 78.0211C72.0136 74.1664 68.2469 71.0403 63.9216 68.8893C59.5963 66.7382 54.8307 65.6209 50 65.6252C45.1694 65.6209 40.4037 66.7382 36.0784 68.8893C31.7531 71.0403 27.9864 74.1664 25.075 78.0211M74.925 78.0211C80.6063 72.9677 84.613 66.3067 86.4216 58.9214C88.2302 51.5362 87.7511 43.7756 85.0478 36.6689C82.3445 29.5622 77.5447 23.4451 71.285 19.129C65.0253 14.8128 57.6014 12.5015 49.9979 12.5015C42.3944 12.5015 34.9706 14.8128 28.7109 19.129C22.4512 23.4451 17.6514 29.5622 14.9481 36.6689C12.2448 43.7756 11.7656 51.5362 13.5743 58.9214C15.3829 66.3067 19.3938 72.9677 25.075 78.0211M74.925 78.0211C68.0668 84.1385 59.1901 87.5133 50 87.5002C40.8085 87.5144 31.9343 84.1395 25.075 78.0211M62.5 40.6252C62.5 43.9404 61.1831 47.1199 58.8388 49.4641C56.4946 51.8083 53.3152 53.1252 50 53.1252C46.6848 53.1252 43.5054 51.8083 41.1612 49.4641C38.817 47.1199 37.5 43.9404 37.5 40.6252C37.5 37.31 38.817 34.1306 41.1612 31.7864C43.5054 29.4422 46.6848 28.1252 50 28.1252C53.3152 28.1252 56.4946 29.4422 58.8388 31.7864C61.1831 34.1306 62.5 37.31 62.5 40.6252Z" stroke="#1D1D1D" stroke-width="1.5" stroke-linecap="round" stroke-linejoin="round"/>
</svg>
