<svg width="22" height="22" viewBox="0 0 22 22" fill="none" xmlns="http://www.w3.org/2000/svg">
<path d="M19.896 8.2142L18.2509 17.1328C18.0479 18.233 17.9465 18.7832 17.6816 19.1947C17.4479 19.5576 17.1263 19.8434 16.7523 20.0206C16.3282 20.2216 15.8108 20.2216 14.7759 20.2216H7.29726C6.2624 20.2216 5.74497 20.2216 5.32087 20.0206C4.94687 19.8434 4.62531 19.5576 4.39168 19.1947C4.12676 18.7832 4.02528 18.233 3.82233 17.1328L2.17724 8.2142M1.06982 8.2142H21.0034M6.60692 11.8164V11.8284M15.4663 11.8164V11.8284M4.39208 8.2142L7.71434 1.00977M17.6811 8.2142L14.3589 1.00977" stroke="black" stroke-width="2" stroke-linecap="round" stroke-linejoin="round"/>
</svg>
