<svg width="24" height="24" viewBox="0 0 24 24" fill="none" xmlns="http://www.w3.org/2000/svg">
<path d="M21 8.25C21 5.765 18.901 3.75 16.312 3.75C14.377 3.75 12.715 4.876 12 6.483C11.285 4.876 9.623 3.75 7.687 3.75C5.1 3.75 3 5.765 3 8.25C3 15.47 12 20.25 12 20.25C12 20.25 21 15.47 21 8.25Z" stroke="black" stroke-width="1.5" stroke-linecap="round" stroke-linejoin="round"/>
</svg>
<svg width="16" height="16" viewBox="0 0 100 100" fill="none" xmlns="http://www.w3.org/2000/svg">
<g id="icon heart">
<path id="Vector" d="M87.5 34.375C87.5 24.0208 78.7542 15.625 67.9667 15.625C59.9042 15.625 52.9792 20.3167 50 27.0125C47.0208 20.3167 40.0958 15.625 32.0292 15.625C21.25 15.625 12.5 24.0208 12.5 34.375C12.5 64.4583 50 84.375 50 84.375C50 84.375 87.5 64.4583 87.5 34.375Z" stroke="black" stroke-width="1.5" stroke-linecap="round" stroke-linejoin="round"/>
</g>
</svg>

