<svg width="16" height="16" viewBox="0 0 100 100" fill="none" xmlns="http://www.w3.org/2000/svg">
<path d="M61.4167 37.5002L59.975 75.0002M40.025 75.0002L38.5833 37.5002M80.1167 24.1252C81.5417 24.3419 82.9583 24.5711 84.375 24.8169M80.1167 24.1252L75.6667 81.971C75.485 84.3262 74.4211 86.5259 72.6876 88.1304C70.9541 89.7349 68.6788 90.6259 66.3167 90.6252H33.6833C31.3212 90.6259 29.0459 89.7349 27.3124 88.1304C25.5789 86.5259 24.515 84.3262 24.3333 81.971L19.8833 24.1252M80.1167 24.1252C75.3078 23.3982 70.474 22.8465 65.625 22.4711M19.8833 24.1252C18.4583 24.3377 17.0417 24.5669 15.625 24.8127M19.8833 24.1252C24.6922 23.3982 29.526 22.8465 34.375 22.4711M65.625 22.4711V18.6544C65.625 13.7377 61.8333 9.63772 56.9167 9.48355C52.3067 9.33621 47.6933 9.33621 43.0833 9.48355C38.1667 9.63772 34.375 13.7419 34.375 18.6544V22.4711M65.625 22.4711C55.2238 21.6672 44.7762 21.6672 34.375 22.4711" stroke="black" stroke-width="1.5" stroke-linecap="round" stroke-linejoin="round"/>
</svg>
