<svg width="100" height="100" viewBox="0 0 100 100" fill="none" xmlns="http://www.w3.org/2000/svg">
<path fill-rule="evenodd" clip-rule="evenodd" d="M15.6666 25C15.6666 24.4477 16.1143 24 16.6666 24H83.3333C83.8856 24 84.3333 24.4477 84.3333 25C84.3333 25.5523 83.8856 26 83.3333 26H16.6666C16.1143 26 15.6666 25.5523 15.6666 25ZM15.6666 50C15.6666 49.4477 16.1143 49 16.6666 49H83.3333C83.8856 49 84.3333 49.4477 84.3333 50C84.3333 50.5523 83.8856 51 83.3333 51H16.6666C16.1143 51 15.6666 50.5523 15.6666 50ZM16.6666 74C16.1143 74 15.6666 74.4477 15.6666 75C15.6666 75.5523 16.1143 76 16.6666 76H83.3333C83.8856 76 84.3333 75.5523 84.3333 75C84.3333 74.4477 83.8856 74 83.3333 74H16.6666Z" fill="black"/>
</svg>
