<svg width="80" height="18" viewBox="0 0 80 18" fill="none" xmlns="http://www.w3.org/2000/svg">
<mask id="mask0_960_863" style="mask-type:luminance" maskUnits="userSpaceOnUse" x="55" y="0" width="25" height="18">
<path d="M69.2627 0H77.4854C78.3895 0 79.2231 0.475375 79.6695 1.24304C80.1174 2.01071 80.1092 2.95503 79.6498 3.71467L73.255 14.2853C71.8619 16.5867 69.3316 18 66.5961 18H58.3734C57.4709 18 56.6357 17.5246 56.1893 16.757C55.7414 15.9893 55.7496 15.045 56.2107 14.2853L62.6037 3.71467C63.9969 1.41328 66.5289 0 69.2627 0Z" fill="white"/>
</mask>
<g mask="url(#mask0_960_863)">
<path d="M53.9625 0H81.9076V18H53.9625V0Z" fill="black"/>
</g>
<path d="M4.34519 4.54834C5.7925 4.54834 6.88043 4.98356 7.60737 5.85241C8.33266 6.72286 8.651 7.91451 8.55911 9.43057H2.69113C2.82569 9.91558 3.06198 10.2898 3.40001 10.5548C3.74133 10.8165 4.16141 10.9466 4.66025 10.9466C5.42164 10.9466 6.08622 10.6688 6.65563 10.1115L8.06683 11.4605C7.16432 12.4209 5.95003 12.8995 4.42396 12.8995C3.07183 12.8995 1.99538 12.5205 1.1946 11.7625C0.397106 11.0044 0 10.0007 0 8.74963C0 7.48731 0.397106 6.47232 1.1946 5.70466C1.99538 4.93378 3.04557 4.54834 4.34519 4.54834ZM2.64518 8.02372H5.99269C5.99269 7.52746 5.84336 7.12757 5.54636 6.82243C5.25263 6.5189 4.86373 6.36633 4.37801 6.36633C3.92183 6.36633 3.53949 6.51729 3.22936 6.81601C2.9225 7.11633 2.72723 7.51943 2.64518 8.02372Z" fill="black"/>
<path d="M12.1215 4.52246C13.3505 4.52246 14.4976 4.83081 15.5609 5.44751L14.6485 7.14345C13.6147 6.5958 12.7385 6.32118 12.0165 6.32118C11.4684 6.32118 11.196 6.51068 11.196 6.88649C11.196 7.08884 11.3437 7.25747 11.6423 7.39398C11.9393 7.5321 12.3053 7.65576 12.7385 7.76657C13.1717 7.87417 13.6016 8.01068 14.0315 8.17771C14.4598 8.34473 14.8225 8.61133 15.1211 8.97428C15.423 9.33884 15.574 9.7837 15.574 10.3105C15.574 11.1295 15.2475 11.7687 14.596 12.2312C13.9478 12.6906 13.1028 12.9186 12.0624 12.9186C10.5823 12.9186 9.33353 12.5332 8.31451 11.7623L9.16124 10.0985C10.1458 10.7762 11.132 11.1135 12.1215 11.1135C12.7286 11.1135 13.0338 10.9272 13.0338 10.5546C13.0338 10.341 12.8862 10.1627 12.5941 10.0214C12.3003 9.88006 11.941 9.7548 11.5176 9.64238C11.0926 9.53156 10.6676 9.39184 10.2443 9.22482C9.82417 9.05779 9.46481 8.79923 9.1678 8.44751C8.87407 8.09259 8.72803 7.64773 8.72803 7.11133C8.72803 6.29387 9.04309 5.6579 9.67321 5.2034C10.3033 4.75051 11.1189 4.52246 12.1215 4.52246Z" fill="black"/>
<path d="M21.4405 4.54834C22.6171 4.54834 23.5639 4.93699 24.2826 5.71108C24.9997 6.48196 25.3591 7.50016 25.3591 8.76247C25.3591 10.0055 25.0063 11.0044 24.3023 11.7625C23.6016 12.5205 22.6696 12.8995 21.5061 12.8995C20.4116 12.8995 19.56 12.5061 18.9528 11.7175V15.7518H16.2748V4.6447H18.9528V5.7175C19.5698 4.9386 20.3985 4.54834 21.4405 4.54834ZM20.7907 10.8246C21.3502 10.8246 21.8031 10.6254 22.1494 10.2271C22.494 9.82886 22.6679 9.31815 22.6679 8.69181C22.6679 8.06226 22.494 7.55155 22.1494 7.15648C21.8031 6.76301 21.3502 6.56547 20.7907 6.56547C20.2557 6.56547 19.816 6.76301 19.4714 7.15648C19.1251 7.55155 18.9528 8.06065 18.9528 8.68539C18.9528 9.32457 19.1202 9.8401 19.4583 10.2336C19.7996 10.6286 20.2426 10.8246 20.7907 10.8246Z" fill="black"/>
<path d="M29.7932 4.54834C31.1535 4.54834 32.2513 4.93217 33.0881 5.69823C33.9234 6.46108 34.3418 7.46965 34.3418 8.72393C34.3418 9.975 33.9234 10.9836 33.0881 11.7496C32.2513 12.5173 31.1535 12.8995 29.7932 12.8995C28.418 12.8995 27.3137 12.5173 26.4785 11.7496C25.6416 10.9836 25.2248 9.975 25.2248 8.72393C25.2248 7.46965 25.6416 6.46108 26.4785 5.69823C27.3137 4.93217 28.418 4.54834 29.7932 4.54834ZM29.7932 6.62971C29.232 6.62971 28.7791 6.82725 28.4345 7.22072C28.0882 7.61579 27.9159 8.12489 27.9159 8.74963C27.9159 9.38399 28.0882 9.89631 28.4345 10.285C28.7791 10.6752 29.232 10.8695 29.7932 10.8695C30.3396 10.8695 30.7859 10.6752 31.1322 10.285C31.4767 9.89631 31.6507 9.38399 31.6507 8.74963C31.6507 8.12489 31.4767 7.61579 31.1322 7.22072C30.7859 6.82725 30.3396 6.62971 29.7932 6.62971Z" fill="black"/>
<path d="M37.5797 4.64452V6.01925C38.1655 5.03959 39.0697 4.54013 40.2906 4.52246V6.88649C39.5242 6.81422 38.899 6.93788 38.4133 7.25908C37.9276 7.57706 37.6487 8.02835 37.5797 8.61454V12.8094H34.9017V4.64452H37.5797Z" fill="black"/>
<path d="M45.4883 10.5547L46.0199 12.3726C45.3668 12.7452 44.6235 12.9315 43.7882 12.9315C42.9612 12.9315 42.2917 12.7067 41.7797 12.257C41.2711 11.8073 41.0183 11.1681 41.0183 10.3362V6.73238H39.8566V5.01718H41.0183V2.74951H43.6767V5.00433H45.8624V6.73238H43.6767V9.93153C43.6767 10.2447 43.739 10.4744 43.867 10.6189C43.9983 10.765 44.1919 10.8341 44.4512 10.8245C44.7006 10.8245 45.0452 10.7345 45.4883 10.5547Z" fill="black"/>
<path d="M50.1338 4.54834C51.5811 4.54834 52.669 4.98356 53.3959 5.85241C54.1212 6.72286 54.4396 7.91451 54.3477 9.43057H48.4797C48.6143 9.91558 48.8506 10.2898 49.1886 10.5548C49.5299 10.8165 49.95 10.9466 50.4488 10.9466C51.2102 10.9466 51.8748 10.6688 52.4442 10.1115L53.8554 11.4605C52.9529 12.4209 51.7386 12.8995 50.2125 12.8995C48.8604 12.8995 47.7839 12.5205 46.9832 11.7625C46.1857 11.0044 45.7886 10.0007 45.7886 8.74963C45.7886 7.48731 46.1857 6.47232 46.9832 5.70466C47.7839 4.93378 48.8341 4.54834 50.1338 4.54834ZM48.4338 8.02372H51.7813C51.7813 7.52746 51.6319 7.12757 51.3349 6.82243C51.0412 6.5189 50.6523 6.36633 50.1666 6.36633C49.7104 6.36633 49.3281 6.51729 49.0179 6.81601C48.7111 7.11633 48.5158 7.51943 48.4338 8.02372Z" fill="black"/>
<path d="M57.9101 4.52246C59.1392 4.52246 60.2862 4.83081 61.3495 5.44751L60.4372 7.14345C59.4034 6.5958 58.5271 6.32118 57.8051 6.32118C57.257 6.32118 56.9846 6.51068 56.9846 6.88649C56.9846 7.08884 57.1323 7.25747 57.431 7.39398C57.728 7.5321 58.0939 7.65576 58.5271 7.76657C58.9603 7.87417 59.3902 8.01068 59.8202 8.17771C60.2484 8.34473 60.6111 8.61133 60.9097 8.97428C61.2117 9.33884 61.3626 9.7837 61.3626 10.3105C61.3626 11.1295 61.0361 11.7687 60.3846 12.2312C59.7365 12.6906 58.8914 12.9186 57.851 12.9186C56.3709 12.9186 55.1222 12.5332 54.1031 11.7623L54.9499 10.0985C55.9344 10.7762 56.9206 11.1135 57.9101 11.1135C58.5173 11.1135 58.8225 10.9272 58.8225 10.5546C58.8225 10.341 58.6748 10.1627 58.3827 10.0214C58.089 9.88006 57.7296 9.7548 57.3063 9.64238C56.8813 9.53156 56.4562 9.39184 56.0329 9.22482C55.6128 9.05779 55.2534 8.79923 54.9564 8.44751C54.6627 8.09259 54.5167 7.64773 54.5167 7.11133C54.5167 6.29387 54.8317 5.6579 55.4618 5.2034C56.092 4.75051 56.9075 4.52246 57.9101 4.52246Z" fill="black"/>
<path d="M69.8599 9.61039H67.2607V12.1607H65.5738V9.61039H62.9877V7.95942H65.5738V5.41553H67.2607V7.95942H69.8599V9.61039Z" fill="white"/>
</svg>
